<svg width="1435" height="364" viewBox="0 0 1435 364" fill="none" xmlns="http://www.w3.org/2000/svg">
<path fill-rule="evenodd" clip-rule="evenodd" d="M232.995 86.3192C230.299 89.1566 227.097 94.9184 225.221 100.309C221.167 111.961 218.243 132.506 218.108 150.287L218.017 162.237L220.271 166.201C221.858 168.994 223.523 170.775 225.902 172.225C228.648 173.899 229.578 175.018 230.872 178.208L232.463 182.131L230.791 186.125C229.872 188.322 228.899 192.57 228.631 195.565C228.363 198.56 226.95 207.373 225.492 215.15C224.033 222.926 222.647 232.026 222.412 235.372C221.935 242.163 221.416 242.52 218.124 238.322C216.426 236.156 196.297 184.147 194.835 178.147C194.417 176.434 194.86 175.545 197.802 172.19C200.361 169.272 201.176 167.809 200.936 166.569C200.601 164.828 191.505 137.915 187.393 126.493C186.1 122.9 184.653 119.491 184.178 118.916C182.892 117.361 180.847 118.373 180.849 120.563C180.85 121.583 183.05 130.282 185.739 139.895C191.22 159.491 190.853 157.921 189.963 157.921C189.255 157.921 186.655 149.908 181.496 131.82C178.267 120.498 177.23 118.719 174.412 119.677C172.66 120.271 173.143 123.277 177.458 138.632C179.718 146.675 181.751 154.829 181.975 156.751L182.382 160.245L181.172 157.921C180.506 156.643 177.945 148.428 175.481 139.665C171.236 124.568 169.742 120.744 168.094 120.744C167.7 120.744 166.886 121.416 166.284 122.238C165.317 123.559 165.352 124.461 166.59 130.038C167.359 133.507 169.742 144.561 171.886 154.602C174.03 164.643 176.093 173.194 176.471 173.604C176.848 174.013 179.155 174.992 181.595 175.78C186.656 177.412 185.802 175.919 191.309 192.775C200.852 221.987 202.017 226.337 203.094 236.757C203.46 240.29 203.354 241.57 202.696 241.57C202.203 241.57 198.37 240.917 194.178 240.119C187.718 238.888 184.097 238.661 170.424 238.633C149.297 238.59 131.391 240.565 98.0247 246.619C30.9087 258.798 22.7515 260.13 4.80901 261.835C2.23036 262.08 0.120052 262.55 0.120274 262.88C0.120862 263.751 5.42246 263.615 14.9694 262.501C31.1763 260.609 38.1256 259.438 89.3984 249.958C129.761 242.495 145.741 240.628 169.3 240.625C185.933 240.623 188.901 240.79 195.501 242.094C199.595 242.903 203.096 243.699 203.282 243.863C203.468 244.028 203.92 247.942 204.287 252.562C205.228 264.433 207.009 269.993 211.57 275.296C213.566 277.617 218.928 280.739 220.919 280.739C222.53 280.739 226.535 277.677 227.833 275.453C230.412 271.035 229.912 262.888 226.62 255.673C225.243 252.656 224.3 251.752 219.658 249.007C216.706 247.261 212.379 245.145 210.044 244.306L205.797 242.782L205.313 238.359C204.41 230.094 202.56 221.594 199.681 212.484C192.026 188.26 188.308 177.53 187.188 176.436C186.513 175.776 184.338 174.76 182.355 174.177C180.371 173.595 178.442 172.761 178.066 172.324C177.166 171.279 167.08 123.412 167.653 122.906C167.896 122.691 168.236 122.639 168.409 122.791C168.581 122.944 170.453 129.343 172.568 137.01C174.683 144.677 177.283 153.283 178.346 156.134C180.159 160.997 180.4 161.303 182.265 161.113C184.15 160.92 184.243 160.737 184.056 157.589C183.948 155.764 181.82 146.986 179.327 138.083C175.25 123.52 174.468 119.382 176.286 121.982C176.619 122.46 179.013 130.218 181.605 139.224C187.279 158.939 187.75 160.084 190.051 159.795C192.845 159.444 192.531 156.471 188.025 140.537C182.438 120.783 182.363 120.489 183.109 121.158C183.465 121.478 185.827 127.864 188.357 135.349C190.887 142.835 193.816 151.498 194.867 154.602C195.917 157.706 197.406 161.792 198.176 163.682L199.576 167.119L195.88 171.608C192.981 175.13 192.279 176.464 192.625 177.797C192.868 178.733 197.977 192.642 203.977 208.708L214.886 237.919L218.512 241.14C221.111 243.449 222.457 245.333 223.269 247.797C224.378 251.167 226.877 253.91 230.223 255.431C234.211 257.243 237.356 255.752 241.386 250.139C242.541 248.53 245.412 245.421 247.766 243.23C251.833 239.443 252.193 238.821 255.057 230.616C256.714 225.87 261.511 212.426 265.717 200.742C269.924 189.057 273.529 178.98 273.73 178.346C274.367 176.333 273.311 174.2 269.34 169.485C264.039 163.189 262.696 160.382 262.673 155.553C262.617 143.9 274.787 125.694 287.351 118.634C291.588 116.254 294.626 116.221 297.437 118.526C306.637 126.07 308.249 154.148 300.151 165.797C299.297 167.025 298.467 167.913 298.306 167.77C298.144 167.628 298.724 165.279 299.593 162.551C300.886 158.492 301.183 155.658 301.223 146.967C301.266 137.735 301.053 135.725 299.591 131.606C297.565 125.899 294.597 122.736 291.268 122.736C286.342 122.736 274.579 132.273 273.748 136.94C273.455 138.592 275.145 139.098 275.708 137.527C276.981 133.971 285.74 128.448 289.49 128.837C291.113 129.006 291.639 129.566 292.419 131.958C295.283 140.728 295.07 155.755 291.958 164.597C289.621 171.236 288.282 172.746 283.837 173.754C278.353 174.998 276.497 176.948 275 183.041C267.356 214.141 261.875 235.238 261.358 235.548C256.401 238.521 246.213 245.864 244.981 247.35C240.477 252.784 236.5 262.515 236.486 268.126C236.478 271.869 237.955 275.511 240.337 277.617C242.287 279.342 242.933 279.534 245.706 279.211C250.064 278.704 255.057 273.9 257.901 267.477C259.576 263.692 260.353 262.704 261.916 262.368C262.982 262.139 267.735 260.23 272.479 258.126C284.826 252.65 289.431 251.853 308.49 251.892C326.086 251.928 335.268 252.872 368.894 258.104C400.751 263.061 410.584 264.239 423.394 264.63C438.357 265.088 460.912 263.28 471.501 260.774C475.005 259.945 475.318 258.52 471.875 259.07C452.98 262.092 449.032 262.406 429.672 262.426C408.113 262.448 412.425 262.896 364.016 255.612C331.189 250.674 324.415 249.996 307.739 249.982C288.943 249.967 280.656 251.527 270.637 256.968C267.217 258.825 261.243 261.072 260.809 260.664C260.707 260.569 261.063 258.4 261.599 255.844C262.135 253.288 262.808 249.031 263.095 246.384C263.542 242.264 263.448 241.57 262.444 241.57C260.914 241.57 258.838 243.573 254.873 248.873C250.831 254.276 247.72 259.722 247.721 261.394C247.723 262.999 249.116 263.479 253.787 263.479C255.816 263.479 257.477 263.66 257.477 263.881C257.478 265.252 252.51 273.121 250.384 275.116C248.198 277.168 247.437 277.476 244.996 277.297C242.717 277.129 241.799 276.627 240.368 274.765C238.769 272.683 238.616 271.889 238.899 267.13C239.39 258.887 244.981 248.213 250.561 244.865C252.059 243.966 255.68 241.554 258.606 239.505L263.927 235.779L267.497 221.248C269.462 213.256 271.35 205.82 271.693 204.725C272.037 203.63 273.567 197.505 275.094 191.115C276.621 184.726 278.341 178.824 278.918 178.002C279.608 177.017 281.501 176.128 284.465 175.399C289.738 174.102 290.721 173.006 293.89 164.892C295.821 159.948 295.968 158.824 295.999 148.627C296.056 130.236 293.63 124.907 286.321 127.366C283.665 128.261 283.912 127.625 286.834 126.048C292.456 123.014 295.407 125.065 297.926 133.756C299.008 137.491 299.408 141.058 299.403 146.908C299.393 156.239 298.119 162.379 294.942 168.394C292.334 173.331 292.371 173.191 293.671 173.191C295.616 173.191 300.873 168.449 302.803 164.954C305.765 159.59 306.935 155.023 307.409 146.967C307.892 138.763 306.676 130.972 303.902 124.499C301.782 119.553 296.793 114.769 293.757 114.769C290.365 114.769 285.359 117.289 280.104 121.641C268.425 131.313 259.596 147.466 260.611 157.305C261.072 161.77 262.318 164.066 267.636 170.249C270.428 173.495 271.667 175.542 271.654 176.888C271.644 177.958 266.777 192.251 260.839 208.649L250.042 238.465L246.335 241.843C244.296 243.702 241.705 246.566 240.576 248.209C237.508 252.679 235.697 254.184 233.387 254.184C230.806 254.184 226.831 251.292 225.477 248.428C223.964 245.228 224.133 244.861 226.747 245.667C228.01 246.057 230.859 246.242 233.077 246.08C237.955 245.722 241.925 243.542 243.7 240.246C244.903 238.011 244.847 237.387 242.188 223.317C240.669 215.282 238.896 204.526 238.246 199.414C237.597 194.302 236.535 188.423 235.887 186.349C234.796 182.863 234.805 182.364 236.001 179.716C237.2 177.059 237.251 173.547 236.711 130.854C236.392 105.554 235.872 84.7126 235.557 84.5406C235.242 84.368 234.089 85.1687 232.995 86.3192ZM234.785 144.644C234.841 163.083 234.595 178.578 234.238 179.077C233.778 179.72 233.212 178.98 232.293 176.535C231.246 173.751 230.282 172.634 227.289 170.732C221.678 167.167 220.4 164.445 220.023 155.266C219.436 140.976 222.45 116.062 226.269 103.632C227.346 100.125 229.464 95.1468 230.976 92.5689L233.724 87.8819L234.203 99.4999C234.467 105.89 234.728 126.204 234.785 144.644ZM234.451 187.63C234.673 188.634 235.402 193.638 236.071 198.75C236.74 203.862 238.45 214.136 239.87 221.58C241.29 229.024 242.452 236.053 242.453 237.199C242.456 242.335 235.713 245.589 228.073 244.14C225.576 243.666 224.373 243.067 224.037 242.131C223.347 240.212 224.235 233.146 227.07 218.003C228.437 210.7 229.927 201.588 230.383 197.754C231.638 187.196 233.389 182.838 234.451 187.63ZM212.072 247.06C218.715 250.016 223.492 253.407 224.635 255.977C228.923 265.615 227.927 276.056 222.511 278.24C218.267 279.951 211.429 274.162 208.817 266.647C207.408 262.594 205.698 251.703 205.694 246.767C205.693 245.033 205.893 244.855 207.381 245.262C208.311 245.517 210.421 246.325 212.072 247.06ZM260.874 248.707C260.59 250.807 259.852 254.541 259.232 257.006L258.106 261.487H254.039C251.574 261.487 249.972 261.198 249.972 260.754C249.971 258.805 259.586 244.89 260.935 244.89C261.184 244.89 261.157 246.607 260.874 248.707Z" fill="#FDCF83"/>
<path fill-rule="evenodd" clip-rule="evenodd" d="M1141.97 79.8313C1138.63 80.751 1135.65 82.9274 1134.58 85.2419C1134 86.4924 1133.24 86.9018 1128.58 88.4664C1110.49 94.5525 1100.68 99.9626 1097.18 105.788C1093.59 111.764 1094.51 121.06 1099.22 126.325C1100.19 127.409 1100.19 127.456 1099.23 129.215C1097.76 131.905 1097.22 137.014 1097.84 142.497C1099.04 153.211 1102.7 158.852 1112.83 165.582C1131.73 178.145 1155.37 183.255 1169.11 177.749C1172.52 176.385 1173.27 176.33 1172.07 177.533C1170.24 179.363 1161.45 181.265 1154.78 181.271C1146.14 181.281 1138.58 179.175 1123 172.424C1105.2 164.71 1100.24 163.214 1091.15 162.824C1086.34 162.617 1084.27 162.752 1079.98 163.558C1069.47 165.528 1055.36 171.461 1036.19 181.962C1030.68 184.981 1025.54 187.789 1024.77 188.201C1023.56 188.844 1022.75 190.58 1023.66 190.58C1023.82 190.58 1026.88 188.939 1030.46 186.933C1057.42 171.811 1071.81 165.859 1084.77 164.476C1094.69 163.415 1102.21 165.269 1121.55 173.548C1140.46 181.642 1145.57 182.947 1156.81 182.547C1163.52 182.309 1167.95 181.49 1171.47 179.838C1172.56 179.325 1173.52 178.967 1173.6 179.043C1173.67 179.12 1174.24 181.56 1174.85 184.467C1176.92 194.339 1179.53 199.91 1183.18 202.265C1185.15 203.535 1188.84 204.536 1191.56 204.536C1200.6 204.536 1213.89 195.877 1216.05 188.586C1216.96 185.485 1215.81 183.206 1211.05 178.725C1201.45 169.683 1202.67 166.996 1222.13 154.4C1225.95 151.931 1230.82 148.332 1232.96 146.402C1236.65 143.088 1237.5 141.815 1238.9 137.579C1239.03 137.175 1239.83 137.9 1240.94 139.44C1245.59 145.888 1251.96 149.703 1262.34 152.25C1265.77 153.092 1275.7 155.056 1278.38 155.423C1279.51 155.578 1281.7 155.899 1283.26 156.138C1293.98 157.784 1310.16 157.937 1314.58 156.435L1316.89 155.651L1314.66 157.647C1310.75 161.152 1310.74 161.186 1310.74 172.436C1310.74 181.931 1310.68 182.538 1309.58 184.405C1307.99 187.093 1305.97 187.977 1301.49 187.936C1294.94 187.877 1289.19 185.082 1280.96 177.959C1276.56 174.151 1276.04 173.493 1272.84 167.696C1269.08 160.892 1266.28 157.563 1263.06 156.079C1261.3 155.264 1260.41 155.153 1257.54 155.394C1247.53 156.237 1228.3 163.572 1222.56 168.735C1218.01 172.832 1217.43 177.083 1220.38 184.863C1223.58 193.309 1229.56 202.486 1235.19 207.611C1239.04 211.115 1241.22 212.291 1249.74 215.484C1262.34 220.203 1266.61 223.713 1283.47 243.181C1284.85 244.784 1289.68 251.661 1294.19 258.463C1307.79 278.957 1312.53 284.541 1316.98 285.297C1319.95 285.802 1322.05 284.608 1323.15 281.784C1323.66 280.493 1324.39 279.438 1324.76 279.438C1325.14 279.438 1326.16 278.8 1327.02 278.02C1328.4 276.767 1328.56 276.366 1328.33 274.577C1328.19 273.464 1327.15 270.805 1326 268.668C1323.99 264.899 1313.44 248.692 1310.36 244.63C1308.73 242.473 1308.74 241.842 1310.4 242.647C1311.91 243.378 1314.42 243.264 1316.5 242.372C1317.5 241.943 1321 239.3 1324.28 236.497C1334.3 227.946 1340.44 224.289 1348.95 221.788C1355.31 219.922 1360.64 219.267 1369.29 219.288C1380.88 219.317 1386.9 220.209 1415.84 226.194C1425.06 228.1 1432.97 229.659 1433.43 229.659C1433.89 229.659 1434.27 229.345 1434.27 228.961C1434.27 228.577 1434.17 228.263 1434.04 228.263C1433.92 228.263 1425.69 226.589 1415.76 224.545C1405.83 222.5 1394.67 220.32 1390.95 219.7C1369.3 216.094 1354.05 217.148 1340.78 223.164C1335.48 225.568 1331.06 228.592 1323.5 234.991C1319.95 237.991 1316.24 240.752 1315.25 241.126C1311.35 242.603 1307.44 240.276 1302.19 233.351C1296.69 226.095 1293.14 222.015 1287.89 216.93C1281.15 210.41 1281.12 210.323 1280.65 197.325C1280.31 187.919 1280.1 186.101 1278.93 182.288C1278.2 179.903 1277.61 177.831 1277.61 177.685C1277.61 177.538 1278.82 178.453 1280.3 179.718C1292.15 189.824 1304.39 192.584 1310.1 186.438C1312.28 184.088 1312.63 181.995 1312.45 172.251L1312.28 163.364L1313.65 161.24C1314.92 159.294 1319.27 155.687 1320.35 155.687C1320.6 155.687 1323.16 156.891 1326.04 158.363C1334.11 162.482 1338.8 166.981 1344.35 175.925C1351.34 187.2 1353.95 190.245 1357.85 191.719C1363.44 193.831 1368.82 191.2 1369.82 185.867C1370.51 182.153 1367.69 176.951 1363.89 174.915C1362.69 174.274 1362.55 174.009 1363.03 173.314C1364.28 171.49 1360.15 166.24 1351.63 158.85C1345.68 153.678 1340.56 150.281 1336.67 148.908C1335.4 148.46 1334.31 148.059 1334.24 148.019C1334.17 147.978 1335.29 146.841 1336.73 145.492C1339.25 143.125 1344.96 135.558 1348.46 129.953C1350.12 127.282 1350.13 127.245 1349.03 126.985C1348.25 126.799 1348.02 126.498 1348.26 125.968C1350.33 121.489 1350.63 115.221 1349.01 110.459C1345.06 98.8805 1331.61 90.7236 1309.89 86.7422C1304.71 85.7927 1302.62 85.6736 1291.22 85.6838C1279.9 85.6945 1277.76 85.8183 1273.19 86.725C1258.32 89.6731 1247.6 94.9409 1240.29 102.895C1235.65 107.941 1234.02 113.162 1235.04 119.677C1235.36 121.7 1235.69 124.82 1235.77 126.611C1235.85 128.402 1236.29 130.809 1236.76 131.961C1237.76 134.473 1237.42 137.787 1235.87 140.558C1234.21 143.525 1229.27 147.805 1222.24 152.36C1207.5 161.92 1204.21 164.922 1203.75 169.202C1203.39 172.598 1204.38 174.46 1208.78 178.693C1210.99 180.812 1213.16 183.191 1213.61 183.98C1215.49 187.28 1214.23 190.653 1209.54 194.908C1206.17 197.956 1201.8 200.49 1197.6 201.827C1194.39 202.85 1188.56 203.152 1187.03 202.375C1186.32 202.014 1186.78 201.946 1188.88 202.104C1197.84 202.777 1213.91 193.283 1213.91 187.323C1213.91 184.874 1212.15 182.995 1204.97 177.79C1200.99 174.907 1196.23 171.142 1194.4 169.424C1191.15 166.39 1191.12 166.328 1193.1 167.273C1199.21 170.183 1202.03 168.698 1210.69 158.014C1213.87 154.082 1214.18 152.816 1214.06 144.057C1213.96 136.611 1213.2 121.972 1212.57 115.546C1212.28 112.556 1211.48 111.026 1210.22 111.026C1209.92 111.026 1206.3 114.136 1202.17 117.938C1193.86 125.574 1189.49 128.605 1181.81 132.035C1164.16 139.922 1137.6 142.083 1120.36 137.037C1118.56 136.51 1115.47 135.358 1113.5 134.477C1109.44 132.669 1103.11 128.584 1103.96 128.327C1104.27 128.233 1107.58 128.906 1111.32 129.821C1131.94 134.868 1153.13 136.593 1165.81 134.255C1177.5 132.098 1189.18 126.112 1198.79 117.345C1204.44 112.194 1205.95 109.389 1205.95 104.047C1205.95 101.1 1205.7 99.6406 1204.98 98.3171C1201.06 91.1623 1185.97 85.4745 1162.29 82.2249C1158.9 81.7596 1154.81 80.9315 1153.19 80.3844C1150.16 79.3595 1144.67 79.0892 1141.97 79.8313ZM1149.71 81.2511C1149.71 81.507 1148.81 81.7164 1147.71 81.7164C1145.48 81.7164 1139.13 83.3535 1138.66 84.0527C1138.49 84.3002 1137.91 84.718 1137.36 84.9813C1136.57 85.3665 1136.43 85.3233 1136.67 84.7604C1137.03 83.9132 1139.92 82.2495 1142.46 81.4284C1144.67 80.7124 1149.71 80.5896 1149.71 81.2511ZM1158.68 84.7985C1161.35 86.6459 1163.56 90.2198 1163.57 92.6962C1163.58 94.6381 1162.66 96.9898 1161.21 98.766C1158.75 101.764 1151.91 103.533 1146.06 102.68C1139.16 101.673 1135.79 98.799 1135.42 93.6085C1134.93 86.6929 1140.21 83.2139 1151.3 83.1432C1156.21 83.112 1156.25 83.1228 1158.68 84.7985ZM1168.71 84.7985C1174.24 85.6624 1183.67 87.9072 1188.07 89.4094C1196.16 92.1672 1200.76 94.933 1203.01 98.3924C1204.2 100.24 1204.41 101.07 1204.4 104.047C1204.38 108.843 1202.86 111.406 1196.77 116.859C1188.02 124.706 1176.44 130.665 1165.95 132.714C1154.09 135.031 1131.7 133.253 1112.47 128.467C1108.8 127.553 1104.85 126.788 1103.7 126.767C1101.79 126.732 1101.45 126.528 1099.95 124.531C1097.76 121.631 1096.8 118.586 1096.81 114.557C1096.81 104.242 1102.57 99.5974 1125.77 91.1684C1130.25 89.5378 1134.01 88.2761 1134.11 88.3649C1134.2 88.4533 1134.03 89.6629 1133.71 91.053C1131.9 99.0549 1139.61 105.077 1150.8 104.385C1159.46 103.85 1165.08 99.3745 1165.11 92.9832C1165.12 90.1333 1164.23 87.943 1162.02 85.4233L1160.45 83.6299L1162.4 83.8732C1163.47 84.0067 1166.31 84.4231 1168.71 84.7985ZM1302.15 87.3247C1321.1 89.1902 1337.19 95.7927 1343.65 104.354C1347.2 109.064 1348.2 111.891 1348.2 117.306C1348.2 122.5 1347.12 125.811 1344.52 128.635L1343.1 130.173V125.601C1343.1 121.491 1342.95 120.769 1341.64 118.469C1339.63 114.933 1337.05 112.207 1333.38 109.734C1323.37 102.997 1305.84 99.0386 1291.69 100.321C1282.22 101.179 1274.25 103.24 1266.05 106.956C1256.86 111.116 1250.77 116.008 1247.66 121.716C1246.25 124.298 1246.02 125.233 1246.02 128.229C1246.02 131.164 1246.24 132.085 1247.39 133.938C1248.16 135.163 1248.51 136.148 1248.19 136.148C1247.87 136.148 1245.48 134.149 1242.87 131.706L1238.14 127.265L1237.26 122.847C1235.13 112.128 1237.74 105.766 1247.06 98.9777C1258.06 90.9655 1272.11 87.066 1290.6 86.8948C1294.21 86.8613 1299.41 87.0548 1302.15 87.3247ZM1311.76 103.053C1332.25 107.216 1343.94 117.429 1341.31 128.87C1340.73 131.42 1340.55 131.643 1337.83 133.219C1333.83 135.536 1323.31 140.061 1318.7 141.445C1308.99 144.358 1297.41 145.445 1285.25 144.586C1274.85 143.85 1261.15 141.501 1256.05 139.579C1254.01 138.808 1250.81 136.161 1249.35 134.04C1245.62 128.599 1247.88 121.431 1255.26 115.321C1262.61 109.236 1275.84 103.886 1287.7 102.203C1292.7 101.493 1306.49 101.98 1311.76 103.053ZM1211.32 121.726C1212.27 135.029 1212.58 150.555 1211.94 152.664C1211.28 154.829 1203.87 163.965 1201.39 165.682C1197.14 168.613 1192.99 166.57 1181.03 155.658C1172.29 147.686 1171.16 147.053 1166.35 147.414C1161.41 147.785 1160.23 150.142 1163.1 153.873C1168.47 160.85 1170.88 164.49 1172.27 167.767C1174.13 172.133 1174.36 174.762 1172.88 174.762C1172.35 174.762 1170.44 175.378 1168.64 176.132C1156.22 181.342 1135.43 177.312 1116.58 166.04C1107.32 160.503 1102.71 155.36 1100.53 148.148C1099.4 144.38 1099.27 132.971 1100.33 130.682C1100.72 129.85 1101.15 129.17 1101.29 129.17C1101.43 129.17 1103.2 130.293 1105.21 131.665C1114.79 138.188 1126.35 141.257 1141.38 141.263C1149.8 141.266 1156.39 140.64 1164.09 139.107C1180.95 135.751 1190.6 130.889 1202.87 119.568C1206.83 115.92 1210.21 113.082 1210.4 113.26C1210.59 113.438 1211 117.248 1211.32 121.726ZM1242.79 133.938C1245.32 136.213 1247.71 137.836 1250.13 138.924C1252.11 139.811 1254.77 141.088 1256.05 141.762C1260.97 144.345 1269.48 146.845 1277.35 148.021C1281.6 148.656 1298.67 148.806 1303.92 148.255C1313.83 147.213 1326.52 143.573 1333.19 139.854C1334.6 139.065 1335.87 138.516 1336 138.634C1336.63 139.208 1329.1 143.242 1324.09 145.009C1317.3 147.406 1315.1 148.736 1315.1 150.441C1315.1 151.111 1315.47 152.029 1315.92 152.481C1317.04 153.598 1316.58 154.075 1313.43 155.071C1311.21 155.771 1309.2 155.915 1302 155.888C1283.43 155.819 1258.26 150.984 1250.14 145.925C1246.98 143.961 1243.17 139.996 1241.18 136.623C1239.68 134.058 1238.33 130.565 1238.85 130.565C1238.95 130.565 1240.72 132.083 1242.79 133.938ZM1344.6 132.775C1341.56 137.51 1337.9 142.079 1335.08 144.638C1332.26 147.198 1332.02 147.313 1329.51 147.313C1326.16 147.313 1323.96 148.159 1321.11 150.535C1318.53 152.69 1317.94 152.827 1317.13 151.462C1316.3 150.043 1317.59 148.988 1321.97 147.52C1331.56 144.305 1336.99 141.002 1339.85 136.654C1340.83 135.153 1345.33 130.565 1345.82 130.565C1345.93 130.565 1345.38 131.559 1344.6 132.775ZM1334.42 137.306C1330.41 140.06 1318.7 144.218 1310.99 145.629C1298.18 147.973 1284.36 147.889 1271.96 145.394C1269.27 144.855 1266.73 144.218 1266.31 143.98C1265.71 143.645 1265.77 143.6 1266.56 143.781C1274.03 145.486 1287.6 146.557 1297.64 146.236C1309.86 145.847 1320.23 143.425 1331.02 138.439C1335.18 136.521 1335.94 136.267 1334.42 137.306ZM1167.69 150.548C1167.69 151.559 1168.37 154.222 1169.2 156.465C1170.76 160.684 1170.9 161.897 1169.55 159.53C1169.12 158.781 1167.88 157.139 1166.79 155.881C1165.69 154.623 1164.35 152.897 1163.8 152.045L1162.81 150.496L1164.02 149.603C1164.69 149.111 1165.78 148.709 1166.46 148.709C1167.55 148.709 1167.69 148.919 1167.69 150.548ZM1327.94 149.135C1327.94 149.368 1326.96 150.06 1325.76 150.67C1324.56 151.281 1322.88 152.176 1322.04 152.66L1320.5 153.54L1322.04 151.996C1322.88 151.147 1324.5 150.065 1325.63 149.591C1328.06 148.574 1327.94 148.596 1327.94 149.135ZM1337.17 150.852C1341.1 152.466 1344.77 155.054 1351.24 160.766C1356.62 165.508 1362.09 171.699 1361.57 172.453C1361.44 172.652 1360.11 172.524 1358.63 172.166C1355.02 171.294 1354.7 171.326 1354.16 172.623C1353.9 173.238 1353.44 173.878 1353.14 174.046C1351.68 174.868 1353.32 179.051 1356.02 181.361C1358.67 183.635 1361.6 183.916 1362.36 181.97C1362.91 180.543 1362.35 179.106 1360.44 177.092C1359.45 176.042 1358.76 175.07 1358.91 174.933C1359.49 174.411 1363.71 176.54 1365.26 178.133C1367.34 180.282 1368.19 182.671 1367.88 185.531C1367.47 189.477 1363.82 191.729 1359.67 190.603C1355.63 189.505 1352.79 186.332 1345.92 175.227C1344.42 172.796 1342.05 169.392 1340.65 167.661C1336.57 162.608 1334.11 160.84 1322.82 154.844C1322.27 154.546 1323.32 153.77 1326.93 151.814C1332.3 148.912 1332.42 148.9 1337.17 150.852ZM1173.85 152.864C1178.29 155.907 1181.29 158.573 1187.55 165.046C1192.97 170.651 1198.91 175.678 1206.07 180.721C1210.74 184.008 1212.03 185.48 1211.97 187.447C1211.79 193.082 1194.96 202.155 1187.94 200.4C1181.56 198.805 1178.65 192.866 1181.83 187.945C1182.55 186.835 1183.23 185.927 1183.35 185.927C1183.47 185.927 1184.4 186.44 1185.42 187.066C1187.72 188.484 1190.99 188.959 1193.77 188.28C1196.25 187.675 1197.48 186.329 1197.48 184.206C1197.48 180.996 1192.38 180.125 1186.9 182.399L1184.1 183.557L1182.86 181.777C1179.77 177.344 1169.23 153.535 1169.23 150.993C1169.23 150.095 1170.64 150.666 1173.85 152.864ZM1261.24 157.093C1262.35 157.372 1263.93 158.375 1265.13 159.554C1267.1 161.488 1270.93 166.931 1270.93 167.797C1270.93 168.034 1269.07 166.475 1266.8 164.333C1262.29 160.076 1260.37 159.017 1258.67 159.841C1257.34 160.488 1256.86 162.753 1257.18 166.865L1257.43 170.05L1254.96 169.786C1252.71 169.544 1252.36 169.644 1250.93 170.942C1250.06 171.724 1249.36 172.799 1249.36 173.33C1249.36 174.547 1249.29 174.541 1247 173.133C1245.78 172.388 1244.39 171.97 1243.11 171.97C1241.42 171.97 1240.97 172.195 1240.1 173.482C1239.54 174.314 1239.09 175.361 1239.08 175.809C1239.08 176.394 1238.67 176.623 1237.61 176.623C1236.8 176.623 1235.54 177.048 1234.81 177.568L1233.48 178.514L1231.04 176.82C1227.09 174.095 1225.34 173.716 1223.67 175.227C1220.6 178.012 1225.3 191.057 1232.46 199.631C1236.43 204.38 1240.24 206.816 1251.76 211.985C1263.76 217.371 1265.85 218.855 1272.03 226.382C1275.99 231.203 1277.15 233.277 1273.96 229.824C1270.34 225.912 1263.54 220.31 1259.96 218.285C1257.88 217.11 1253.34 215.111 1249.87 213.842C1242.3 211.07 1239.6 209.561 1235.91 206.04C1226.85 197.4 1218.74 180.571 1220.6 174.248C1221.36 171.647 1225.21 168.176 1229.84 165.926C1237.13 162.375 1247.83 158.657 1254.54 157.338C1258.66 156.53 1258.96 156.519 1261.24 157.093ZM1262.01 162.317C1263.83 163.538 1263.66 163.383 1269.69 169.43C1274.18 173.938 1274.4 174.261 1275.98 178.734C1278.43 185.691 1278.65 187.133 1279.08 198.488C1279.46 208.694 1279.5 209.019 1280.9 211.469C1281.68 212.851 1284.39 215.95 1286.92 218.355C1290.97 222.205 1299.89 232.423 1299.51 232.772C1299.43 232.843 1298.46 232.472 1297.35 231.947C1294.73 230.71 1291.6 230.965 1289.22 232.612C1287.29 233.947 1284.8 238.017 1284.79 239.868C1284.78 241.009 1284.73 240.991 1283.67 239.428C1278.91 232.424 1271.55 222.85 1268.96 220.307C1265.22 216.628 1261.18 214.172 1254.11 211.285C1246.42 208.146 1241.04 205.281 1237.81 202.608C1232.37 198.102 1226.68 188.92 1224.9 181.775C1223.4 175.767 1225.07 174.567 1229.95 178.161L1232.66 180.164L1233.02 184.558C1233.62 192.003 1237.04 200.777 1239.62 201.52C1241.64 202.1 1242.31 200.938 1242.03 197.339C1241.72 193.313 1240.8 190.792 1237.41 184.59L1234.76 179.763L1235.89 178.934C1237.68 177.624 1238.92 178.235 1239.32 180.614C1239.69 182.852 1241.92 189.003 1243.68 192.673C1247.31 200.185 1251.17 199.736 1249.96 191.942C1249.11 186.424 1247.54 183.363 1243.81 179.93C1240.99 177.337 1240.61 176.791 1240.89 175.659C1241.56 172.908 1243.85 172.752 1246.99 175.243C1248.51 176.458 1248.79 177.02 1249.11 179.539C1250.05 187.029 1253.38 195.257 1255.89 196.295C1257.71 197.045 1259.46 196.076 1260.17 193.926C1261.24 190.707 1259.02 185.835 1253.49 179.207C1250.5 175.629 1250.18 173.97 1252.16 172.182C1253.62 170.86 1253.94 170.819 1256.19 171.671C1257.78 172.271 1257.9 172.493 1258.53 175.975C1258.9 177.994 1259.87 181.475 1260.68 183.71C1263.17 190.51 1266.14 193.52 1268.37 191.503C1269.6 190.391 1269.64 189.32 1268.59 185.676C1267.46 181.726 1264.65 176.817 1261.76 173.762C1259.35 171.215 1259.27 171.023 1258.97 167.482C1258.64 163.391 1258.93 161.27 1259.84 161.27C1260.18 161.27 1261.16 161.741 1262.01 162.317ZM1181.31 185.927C1179.8 187.429 1178.99 188.879 1178.99 190.084C1178.99 190.946 1177.98 191.539 1177.95 190.696C1177.94 190.504 1177.28 187.387 1176.49 183.768C1175.27 178.26 1175.13 176.848 1175.58 175.096L1176.11 173.004L1179.3 178.884L1182.48 184.764L1181.31 185.927ZM1263.5 178.718C1265.77 182.391 1267.33 186.503 1267.33 188.792C1267.33 193.499 1263.45 187.832 1261.23 179.885C1260.63 177.737 1260.14 175.681 1260.14 175.314C1260.14 174.144 1261.57 175.593 1263.5 178.718ZM1358.6 177.455C1360.98 180.097 1361.46 181.74 1359.85 181.74C1358 181.74 1353.6 176.393 1354.44 175.162C1355.05 174.275 1356.42 175.034 1358.6 177.455ZM1254.13 182.787C1257.46 187.369 1258.73 190.242 1258.51 192.71C1258.36 194.306 1258.18 194.534 1257.06 194.534C1256.04 194.534 1255.53 194.079 1254.57 192.337C1252.8 189.109 1250.15 178.949 1251.07 178.949C1251.22 178.949 1252.6 180.676 1254.13 182.787ZM1246.82 186.755C1248.14 189.893 1248.87 196.518 1247.82 195.933C1246.25 195.053 1241.08 182.973 1241.16 180.354C1241.2 178.997 1245.69 184.077 1246.82 186.755ZM1195.32 183.229C1197.17 184.906 1194.94 186.858 1191.17 186.858C1188.48 186.858 1185.48 185.739 1185.8 184.853C1186.36 183.332 1194 182.03 1195.32 183.229ZM1236.97 187.119C1239.76 192.406 1241.58 199.884 1240.08 199.884C1239.29 199.884 1237.17 195.443 1236.07 191.468C1234.89 187.221 1234.32 183.47 1234.91 183.797C1235.15 183.931 1236.07 185.426 1236.97 187.119ZM1297.38 233.784C1300.39 235.473 1303.9 238.676 1306.33 241.937C1313.55 251.648 1324.14 268.118 1325.9 272.361C1327.22 275.552 1327.19 275.919 1325.5 277.125L1324.09 278.136L1323.94 276.81C1323.38 271.959 1320.67 268.738 1317.16 268.738C1314.85 268.738 1312.32 270.397 1311.8 272.243C1311.04 274.987 1314.57 278.351 1319.45 279.533C1320.77 279.851 1321.78 280.372 1321.78 280.728C1321.78 281.878 1320.71 283.198 1319.41 283.644C1316.59 284.615 1313.07 282.023 1307.67 275.018C1302.22 267.929 1287.2 244.92 1286.67 242.84C1285.98 240.106 1287.04 236.986 1289.43 234.714C1291.06 233.156 1291.62 232.916 1293.58 232.917C1294.89 232.918 1296.49 233.284 1297.38 233.784ZM1318.92 270.668C1320.35 271.262 1321.82 274.175 1321.95 276.706C1322.03 278.123 1321.91 278.261 1320.75 278.133C1318.64 277.899 1314.9 275.978 1314.13 274.727C1313.2 273.229 1313.7 271.367 1315.22 270.706C1316.76 270.034 1317.37 270.028 1318.92 270.668Z" fill="#FDCF83"/>
<circle cx="713.057" cy="181.958" r="181.958" fill="#FEE2B4"/>
<path d="M760.836 335.086C741.886 334.841 726.359 331.593 711.569 325.007C702.3 320.879 694.202 315.205 687.443 307.495C676.166 294.635 663.952 282.742 649.709 273.052C634.45 262.661 617.841 258.456 599.459 261.014C593.403 261.86 587.235 262.45 581.133 262.305C553.996 261.704 531.922 238.708 534.141 213.51C535.223 201.306 541.96 192.161 550.906 184.384C555.981 179.979 561.748 176.608 567.626 173.392C581.055 166.039 584.167 157.795 579.003 143.354C577.006 137.77 574.486 132.374 572.679 126.733C569.299 116.265 571.664 109.879 580.754 103.815C594.507 94.6372 609.018 87.517 625.984 86.5937C632.643 86.2265 638.421 83.0447 643.786 79.251C656.658 70.1617 668.737 59.6039 676.3 46.0757C686.584 27.6969 717.001 25.7722 730.665 35.7404C736.242 39.8122 741.361 44.329 746.191 49.2241C758.84 62.0404 771.656 74.6563 785.498 86.2377C798.058 96.751 812.279 102.191 828.642 103.448C846.633 104.828 863.811 109.645 878.679 120.403C893.257 130.95 900.318 144.979 897.161 163.246C895.644 172.002 890.201 178.232 883.632 183.639C878.021 188.256 871.752 191.894 865.417 195.42C859.093 198.947 852.835 202.607 846.444 206C827.85 215.88 819.451 231.677 818.994 252.259C818.748 263.373 818.581 274.498 817.934 285.601C816.294 313.826 802.675 328.856 774.701 333.64C769.202 334.585 763.658 335.253 760.814 335.075L760.836 335.086Z" fill="white"/>
<path d="M715.158 214.55C696.419 214.18 678.496 209.94 663.482 197.4C651.332 187.253 644.966 174.555 648.982 158.356C651.119 149.753 656.321 142.963 663.001 137.279C689.795 114.491 739.357 114.066 766.678 136.351C788.55 154.195 788.427 180.876 766.242 198.317C751.396 209.985 734.054 214.18 715.147 214.55H715.158Z" fill="#FEB500"/>
<path d="M520.489 229.037C519.926 219.826 516.105 214.79 507.612 212.152C502.434 210.546 497.083 209.812 491.709 210.087C487.543 210.305 486.611 208.653 486.646 204.799C486.807 185.114 486.726 165.43 486.726 145.745H486.496C486.496 125.682 486.945 105.596 486.347 85.5554C485.898 70.2987 476.462 61.5691 461.628 60.6973C451.433 60.1008 444.597 65.5382 438.947 72.9945C412.065 108.544 385.241 144.139 358.452 179.746C350.983 189.68 343.147 199.396 336.403 209.812C325.851 226.101 334.309 245.59 353.227 249.984C357.37 250.947 361.559 251.188 365.793 251.177C388.993 251.154 412.203 251.292 435.403 251.062C440.006 251.016 441.835 251.957 441.571 256.947C441.156 264.954 441.283 273.007 441.571 281.025C441.996 293.093 448.728 301.788 458.832 303.841C473.297 306.789 485.104 298.381 486.301 283.652C487.014 274.911 486.991 266.066 486.6 257.302C486.358 252.037 488.153 250.661 493.101 251.085C498.671 251.555 504.229 250.787 509.442 248.55C517.313 245.166 521.088 238.444 520.512 229.049L520.489 229.037ZM441.444 199.178C441.444 206.382 437.854 209.984 430.673 209.984C414.988 209.984 399.303 209.984 382.215 209.984C401.985 183.382 421.099 157.641 440.224 131.899L441.444 132.381C441.444 154.647 441.444 176.912 441.444 199.178Z" fill="#262626"/>
<path d="M1094.27 228.837C1093.87 219.889 1090.19 214.945 1081.9 212.273C1076.54 210.552 1071.01 209.841 1065.44 210.105C1061.64 210.277 1060.6 209.003 1060.63 205.264C1060.8 185.774 1060.71 166.273 1060.71 146.783C1060.71 128.441 1060.66 110.087 1060.74 91.7445C1060.76 87.5002 1060.39 83.3246 1059.34 79.2524C1057.09 70.4539 1051.85 64.2136 1042.83 61.8849C1033.6 59.5104 1024.81 60.1298 1017.89 67.655C1013.62 72.2893 1009.48 77.0843 1005.69 82.1202C983.46 111.59 961.331 141.14 939.213 170.701C929.478 183.721 919.259 196.431 910.341 209.978C899.627 226.267 908.247 245.642 927.291 250.024C931.434 250.976 935.623 251.206 939.858 251.206C962.861 251.183 985.876 251.389 1008.88 251.057C1014.43 250.976 1015.54 252.8 1015.42 257.836C1015.21 266.795 1014.65 275.812 1015.89 284.748C1017.57 296.861 1026.3 304.455 1038.18 304.398C1051.49 304.341 1060.02 295.473 1060.62 280.561C1060.95 272.359 1060.91 264.122 1060.63 255.909C1060.5 252.043 1061.81 250.919 1065.52 251.126C1071.68 251.47 1077.81 250.999 1083.58 248.487C1091.35 245.103 1094.71 238.863 1094.28 228.837H1094.27ZM1015.36 204.53C1015.39 208.636 1014.5 210.196 1010 210.116C993.897 209.841 977.798 210.024 961.699 209.978C960.272 209.978 958.673 210.518 956.981 208.866C975.957 183.331 994.933 157.784 1013.87 132.295C1016.11 133.052 1015.24 134.647 1015.24 135.748C1015.3 158.668 1015.19 181.599 1015.36 204.518V204.53Z" fill="#262626"/>
</svg>
