<svg width="20" height="20" viewBox="0 0 20 20" fill="none" xmlns="http://www.w3.org/2000/svg">
<path d="M9.33565 0.785306C9.71453 0.448518 10.2855 0.448518 10.6644 0.785306L19.6644 8.78531C20.0772 9.15222 20.1143 9.7843 19.7474 10.1971C19.3805 10.6099 18.7484 10.647 18.3356 10.2801L18 9.98178V17.5327C18 18.6373 17.1046 19.5327 16 19.5327H4.00001C2.89544 19.5327 2.00001 18.6373 2.00001 17.5327V9.98178L1.66437 10.2801C1.25159 10.647 0.619519 10.6099 0.252601 10.1971C-0.114317 9.7843 -0.0771359 9.15222 0.335647 8.78531L9.33565 0.785306ZM4.00001 8.204V17.5327H7.00001V12.5327C7.00001 11.9804 7.44773 11.5327 8.00001 11.5327H12C12.5523 11.5327 13 11.9804 13 12.5327V17.5327H16V8.204L10 2.87067L4.00001 8.204ZM11 17.5327V13.5327H9.00001V17.5327H11Z" fill="#555555"/>
</svg>
