<svg width="18" height="20" viewBox="0 0 18 20" fill="none" xmlns="http://www.w3.org/2000/svg">
<path d="M6.36077 0.325468C6.6659 0.664491 6.74089 1.18274 6.54679 1.61095C6.04068 2.72746 5.75522 3.9893 5.75522 5.32843C5.75522 9.89967 9.09037 13.6053 13.2044 13.6053C14.4097 13.6053 15.5453 13.2882 16.5502 12.7258C16.9355 12.5102 17.402 12.5935 17.7071 12.9325C18.0122 13.2715 18.0872 13.7897 17.8931 14.218C16.3397 17.6452 13.1428 20 9.44925 20C4.23056 20 0 15.2994 0 9.50092C0 5.3969 2.11941 1.84491 5.20384 0.11879C5.58922 -0.0968798 6.05566 -0.013556 6.36077 0.325468ZM3.8217 4.07736C2.68637 5.53048 2 7.42703 2 9.50092C2 14.0721 5.33513 17.7778 9.44925 17.7778C11.3157 17.7778 13.0226 17.0152 14.3304 15.7537C13.961 15.8025 13.5853 15.8276 13.2044 15.8276C7.98577 15.8276 3.75521 11.1269 3.75521 5.32843C3.75521 4.90526 3.7778 4.48775 3.8217 4.07736Z" fill="#0D0D0D"/>
</svg>
