<svg width="32" height="33" viewBox="0 0 32 33" fill="none" xmlns="http://www.w3.org/2000/svg">
<path d="M13.5282 4.83083C13.9244 3.85488 14.8818 3.16667 16 3.16667C17.1182 3.16667 18.0756 3.85488 18.4718 4.83083C22.4269 5.91429 25.3333 9.5344 25.3333 13.8333V20.0963L27.7761 23.7604C28.0488 24.1695 28.0743 24.6956 27.8422 25.1292C27.6102 25.5627 27.1584 25.8333 26.6667 25.8333H20.6194C20.2959 28.0949 18.351 29.8333 16 29.8333C13.649 29.8333 11.7041 28.0949 11.3806 25.8333H5.33334C4.84161 25.8333 4.38979 25.5627 4.15777 25.1292C3.92574 24.6956 3.95117 24.1695 4.22393 23.7604L6.66667 20.0963V13.8333C6.66667 9.5344 9.57311 5.91429 13.5282 4.83083ZM14.1138 25.8333C14.3884 26.6101 15.1292 27.1667 16 27.1667C16.8708 27.1667 17.6116 26.6101 17.8862 25.8333H14.1138ZM16 7.16667C12.3181 7.16667 9.33334 10.1514 9.33334 13.8333V20.5C9.33334 20.7632 9.25542 21.0206 9.1094 21.2396L7.82469 23.1667H24.1753L22.8906 21.2396C22.7446 21.0206 22.6667 20.7632 22.6667 20.5V13.8333C22.6667 10.1514 19.6819 7.16667 16 7.16667Z" fill="#ED7402"/>
</svg>
