<svg width="18" height="21" viewBox="0 0 18 21" fill="none" xmlns="http://www.w3.org/2000/svg">
<path d="M9.00002 0.476562C9.49709 0.476562 9.9 0.924278 9.9 1.47656V2.47656C9.9 3.02884 9.49709 3.47656 9.00002 3.47656C8.50295 3.47656 8.09997 3.02884 8.09997 2.47656V1.47656C8.09997 0.924278 8.50295 0.476562 9.00002 0.476562ZM15.364 3.40549C15.7155 3.79601 15.7155 4.42918 15.364 4.8197L14.7276 5.52681C14.3761 5.91733 13.8063 5.91733 13.4548 5.52681C13.1033 5.13628 13.1033 4.50312 13.4548 4.11259L14.0912 3.40549C14.4427 3.01496 15.0125 3.01496 15.364 3.40549ZM2.63603 3.40549C2.98751 3.01496 3.55735 3.01496 3.90883 3.40549L4.54522 4.11259C4.8967 4.50312 4.8967 5.13628 4.54522 5.52681C4.19375 5.91733 3.6239 5.91733 3.27243 5.52681L2.63603 4.8197C2.28456 4.42918 2.28456 3.79601 2.63603 3.40549ZM9.00002 6.47656C7.0118 6.47656 5.4 8.26739 5.4 10.4766C5.4 12.6857 7.0118 14.4766 9.00002 14.4766C10.9882 14.4766 12.6 12.6857 12.6 10.4766C12.6 8.26739 10.9882 6.47656 9.00002 6.47656ZM3.6 10.4766C3.6 7.16285 6.01766 4.47656 9.00002 4.47656C11.9824 4.47656 14.4 7.16285 14.4 10.4766C14.4 13.7902 11.9824 16.4766 9.00002 16.4766C6.01766 16.4766 3.6 13.7902 3.6 10.4766ZM0 10.4766C0 9.92429 0.402943 9.47654 0.9 9.47654H1.8C2.29705 9.47654 2.7 9.92429 2.7 10.4766C2.7 11.0288 2.29705 11.4766 1.8 11.4766H0.9C0.402943 11.4766 0 11.0288 0 10.4766ZM15.3 10.4766C15.3 9.92429 15.703 9.47654 16.2 9.47654H17.1C17.5971 9.47654 18 9.92429 18 10.4766C18 11.0288 17.5971 11.4766 17.1 11.4766H16.2C15.703 11.4766 15.3 11.0288 15.3 10.4766ZM3.27243 15.4263C3.6239 15.0358 4.19375 15.0358 4.54522 15.4263C4.8967 15.8168 4.8967 16.45 4.54522 16.8405L3.90883 17.5476C3.55735 17.9381 2.98751 17.9381 2.63603 17.5476C2.28456 17.1571 2.28456 16.5239 2.63603 16.1334L3.27243 15.4263ZM13.4548 16.8405C13.1033 16.45 13.1033 15.8168 13.4548 15.4263C13.8063 15.0358 14.3761 15.0358 14.7276 15.4263L15.364 16.1334C15.7155 16.5239 15.7155 17.1571 15.364 17.5476C15.0125 17.9381 14.4427 17.9381 14.0912 17.5476L13.4548 16.8405ZM9.00002 17.4766C9.49709 17.4766 9.9 17.9242 9.9 18.4765V19.4766C9.9 20.0288 9.49709 20.4766 9.00002 20.4766C8.50295 20.4766 8.09997 20.0288 8.09997 19.4766V18.4765C8.09997 17.9242 8.50295 17.4766 9.00002 17.4766Z" fill="white"/>
</svg>
