<svg width="182" height="187" viewBox="0 0 182 187" fill="none" xmlns="http://www.w3.org/2000/svg">
<ellipse cx="90.7969" cy="177.069" rx="90" ry="9" fill="#9D9D9D"/>
<path d="M17.3835 23.4819C13.5297 23.4819 10.3462 23.4819 7.16267 23.4819C5.82223 23.4819 4.14669 23.9846 3.64402 21.9739C3.30891 20.4659 4.31424 19.6282 5.15201 18.7904C11.6866 13.2611 18.2213 7.89935 24.9235 2.37005C26.7666 0.862061 28.7772 1.02962 30.9554 1.02962C66.9797 1.02962 102.836 1.19717 138.861 0.862061C143.887 0.862061 145.73 2.87272 146.736 7.22913C149.417 17.6175 152.6 27.8384 155.448 38.2267C156.286 41.0752 157.124 42.4156 160.643 41.4103C164.999 40.0698 169.691 39.9023 174.047 38.897C176.058 38.3943 177.398 38.3943 178.068 40.4049C178.739 42.5832 177.231 43.2534 175.387 43.4209C170.863 44.0911 166.34 45.0965 161.816 45.7667C158.967 46.1018 157.627 46.9396 159.135 50.1231C160.978 54.4795 161.145 59.0035 160.643 63.695C160.308 67.3812 161.313 69.2243 165.334 68.7217C171.534 67.7163 175.22 69.8945 175.89 76.7643C176.393 81.1207 182.592 83.4665 180.917 89.1633C180.414 91.174 180.917 93.5197 178.571 94.5251C176.895 95.3628 176.895 96.7033 176.895 98.2113C175.22 122.004 173.377 145.629 171.869 169.422C171.366 177.297 168.518 180.313 160.643 180.313C149.584 180.313 138.358 181.653 127.467 180.145C88.9293 174.784 50.0566 179.308 11.5191 177.8C7.49778 177.632 5.98979 176.627 5.98979 172.438C6.15734 134.571 5.98979 96.7033 6.15734 59.0035C6.15734 51.296 10.6813 44.4263 12.692 37.0539C13.8649 32.6974 15.5404 28.5086 17.3835 23.4819Z" fill="#262626"/>
<path d="M32.7984 23.6494C58.937 23.6494 85.0755 23.3143 111.214 23.6494C118.922 23.817 125.624 22.6441 130.985 16.9472C131.991 15.9419 133.164 13.7637 135.007 15.2717C136.18 16.277 135.174 17.9525 134.672 19.293C131.321 28.8436 127.969 38.5618 124.618 48.1124C122.775 53.139 120.765 58.1656 121.435 63.8625C121.602 64.8678 121.435 66.8785 121.1 66.8785C111.549 68.0514 114.565 78.9424 108.533 82.9637C106.187 84.4717 106.355 90.001 108.198 92.3468C111.884 96.8708 111.884 102.065 112.219 107.092C113.895 127.198 115.068 147.472 116.576 167.746C116.911 171.433 116.408 172.941 112.219 172.773C81.8919 172.605 51.5646 172.605 21.4047 172.438C18.2212 170.26 18.0536 166.741 18.0536 163.39C17.8861 131.052 17.8861 98.5463 18.0536 66.2083C18.0536 63.8625 18.3888 61.6843 19.059 59.3385C22.7452 47.7773 26.934 36.3835 31.1229 24.9898C31.6256 24.6547 32.1282 24.1521 32.7984 23.6494Z" fill="#ED7402"/>
<path d="M171.534 98.7139C171.031 119.826 168.853 140.77 167.177 161.882C166.005 175.621 165.502 175.789 151.427 175.621C142.715 175.454 133.834 176.292 125.121 175.286C121.1 166.406 122.608 156.688 121.77 147.472C120.43 133.733 119.257 119.993 118.754 106.254C118.419 99.049 119.76 97.0383 126.964 97.0383C139.699 96.8708 152.433 97.0383 165.167 97.0383C167.345 96.8708 169.691 97.0383 171.534 98.7139Z" fill="#ED7402"/>
<path d="M32.4634 24.8226C30.1177 36.0488 25.091 46.4371 21.7399 57.3282C20.5671 61.1819 19.7293 64.8681 19.7293 68.8895C19.7293 100.222 19.8968 131.387 19.7293 162.72C19.7293 166.071 20.7346 169.255 21.4048 172.438C20.9022 172.438 20.3995 172.438 19.7293 172.438C18.724 172.103 17.7186 171.936 16.7133 172.103C12.3569 172.773 11.5191 170.595 11.6867 166.741C11.8542 135.744 11.6867 104.579 11.6867 73.581C11.6867 71.5703 12.1893 69.3921 11.184 67.3815C9.3409 57.3282 14.0324 48.7829 17.0484 39.9025C18.8915 34.8759 20.5671 29.8492 22.4102 24.8226C25.7612 23.8173 29.1123 23.8173 32.4634 24.8226Z" fill="#FEE2B4"/>
<path d="M14.8701 18.9581C15.0377 14.2666 19.7292 13.9315 21.9074 11.083C25.4261 6.89418 30.1176 5.7213 35.6469 5.88886C66.6445 6.22397 97.4745 6.05641 128.472 6.05641C130.483 6.05641 132.493 6.05641 136.347 6.05641C132.158 9.23995 129.477 11.2506 126.629 13.4288C121.435 14.4341 116.241 14.2666 111.046 14.2666C87.9239 14.2666 64.8014 14.2666 41.6788 14.2666C35.8144 14.2666 30.4527 15.2719 25.7612 18.623C24.5883 18.7906 23.583 18.9581 22.4101 19.1257C19.8968 19.1257 17.3834 19.2932 14.8701 18.9581Z" fill="#FEE2B4"/>
<path d="M25.7612 18.4553C27.7719 14.2665 31.123 12.0882 35.647 12.0882C64.6339 12.0882 93.7884 12.0882 122.775 12.0882C124.283 12.0882 125.791 11.9207 126.797 13.2611C124.786 15.7744 122.273 17.6175 119.257 18.7904C89.9346 19.1255 60.6126 18.958 31.2905 18.7904C29.2799 18.7904 27.4368 18.6229 25.7612 18.4553Z" fill="#ED7402"/>
<path d="M147.573 52.3013C147.238 53.6418 147.071 55.1497 146.736 56.4902C143.887 69.727 143.887 69.5594 130.65 69.0568C127.299 68.8892 126.629 67.7163 126.461 64.7004C126.294 60.0088 127.299 55.6524 128.975 51.296C132.326 42.0805 135.845 32.6974 139.196 23.4819C141.039 23.4819 141.709 24.9899 142.044 26.3304C144.557 34.7081 147.573 43.2534 147.573 52.3013Z" fill="#ED7402"/>
<path d="M171.533 98.7141C156.454 98.7141 141.541 98.8817 126.461 98.7141C121.602 98.7141 119.759 99.7194 120.094 104.914C120.932 120.664 122.272 136.414 123.78 151.996C124.451 159.704 124.786 167.411 125.121 174.951C121.77 174.281 121.77 171.433 121.602 169.087C119.927 146.132 118.251 123.345 116.408 100.39C116.073 96.5359 116.911 94.8604 121.602 94.8604C136.85 95.1955 152.097 95.0279 167.345 95.0279C170.025 95.0279 172.874 94.5252 171.533 98.7141Z" fill="#FEE2B4"/>
<path d="M170.193 76.2617C171.701 79.1101 172.539 81.1208 167.68 81.1208C151.93 80.7857 136.012 80.9532 120.262 80.7857C118.419 77.267 120.262 75.2564 123.278 75.0888C138.526 74.9213 153.941 74.0835 169.188 75.4239C169.691 75.5915 169.858 76.0941 170.193 76.2617Z" fill="#FEE2B4"/>
<path d="M144.055 90.0011C135.175 90.0011 126.127 90.0011 117.246 90.0011C115.738 90.0011 113.057 91.1739 112.89 88.158C112.722 84.9744 115.403 85.9798 116.911 85.9798C135.007 85.9798 153.103 85.8122 171.199 85.9798C172.874 85.9798 175.555 84.9744 175.555 87.8229C175.555 91.3415 172.539 89.8335 170.864 89.8335C161.983 90.1686 152.935 90.0011 144.055 90.0011Z" fill="#ED7402"/>
<path d="M147.573 52.3014C144.054 42.9183 143.217 32.6975 139.028 23.482C139.866 20.2985 140.703 17.1149 141.709 13.9314C145.227 26.498 154.61 38.2268 147.573 52.3014Z" fill="#FEE2B4"/>
<path d="M170.193 76.2616C155.616 76.2616 141.039 76.2616 126.462 76.2616C123.278 76.2616 119.927 75.9265 120.262 80.7856C118.754 80.9531 116.911 81.9585 117.414 78.7749C117.916 75.9265 118.419 73.7483 122.105 73.7483C134.169 73.9158 146.233 73.7483 158.297 73.7483C161.481 73.7483 164.497 73.7483 167.68 73.7483C169.523 73.7483 170.529 74.4185 170.193 76.2616Z" fill="#ED7402"/>
<path d="M11.1837 67.5488C13.0268 69.5595 12.1891 71.9052 12.1891 74.0835C12.3566 103.238 12.5242 132.56 12.1891 161.882C12.1891 167.914 12.3566 172.438 19.729 172.606C10.8486 173.108 10.8486 173.108 10.8486 164.06C11.0162 131.89 11.1837 99.7193 11.1837 67.5488Z" fill="#FEE2B4"/>
<path d="M31.123 18.9578C43.5221 17.9525 56.0887 18.6227 68.4877 18.4551C85.4107 18.4551 102.166 18.6227 119.089 18.7902C117.749 19.7956 116.408 19.628 114.9 19.628C88.4267 19.628 61.9531 19.628 35.3119 19.628C33.8039 19.628 32.4635 19.2929 31.123 18.9578Z" fill="#ED7402"/>
<path d="M153.27 50.7935C156.454 56.3228 155.449 61.3494 155.616 66.376C155.784 69.8947 153.103 69.0569 151.26 69.0569C148.411 69.0569 149.417 67.3814 149.919 65.5383C150.925 61.0143 151.93 56.3228 153.27 50.7935Z" fill="#FEE2B4"/>
<path d="M32.4631 24.8226C29.112 24.8226 25.9285 24.8226 22.5774 24.8226C25.7609 21.9741 29.4471 24.1523 32.7982 23.6497C32.6307 24.1523 32.6307 24.4874 32.4631 24.8226Z" fill="#FEE2B4"/>
<path d="M14.8701 18.9579C17.3834 18.4553 19.8968 18.2877 22.2425 18.9579C19.8968 20.1308 17.3834 20.2984 14.8701 18.9579Z" fill="#ED7402"/>
<path d="M70.163 157.861C45.8676 157.861 29.9499 146.969 24.2531 130.214C18.8913 114.464 24.4206 97.3733 38.1601 86.985C57.4289 72.4077 86.9185 76.7641 100.155 96.368C108.701 108.935 109.706 122.507 102.501 135.911C94.626 150.656 81.3892 157.525 70.163 157.861Z" fill="#262626"/>
<path d="M144.557 150.321C136.012 150.321 128.975 143.283 129.142 134.906C129.31 126.528 135.845 120.161 144.39 119.993C153.103 119.826 159.805 126.695 159.805 135.408C159.637 143.618 152.935 150.153 144.557 150.321Z" fill="#262626"/>
<path d="M81.7245 87.1528C96.4693 93.855 104.009 108.432 101.328 125.02C99.1502 138.425 84.7405 151.494 70.4983 152.667C59.9424 153.672 49.8891 152.332 41.3438 145.294C31.2906 130.885 31.9608 115.972 41.8465 102.4C51.3971 88.9959 64.969 83.2991 81.7245 87.1528Z" fill="#FDCF83"/>
<path d="M81.7242 87.1526C71.8385 86.9851 62.2879 87.6553 53.575 93.3522C37.1547 104.076 31.6254 123.009 40.1707 140.77C40.8409 142.111 42.5164 143.283 41.3435 145.294C30.1174 136.414 25.0907 125.188 28.2743 110.945C31.9605 95.3628 42.3489 86.8175 57.7639 83.634C66.3092 81.9584 74.1842 82.9638 81.7242 87.1526Z" fill="#FEE2B4"/>
<path d="M149.249 126.193C153.605 128.036 155.113 131.89 154.778 136.079C154.443 140.268 151.93 143.619 147.909 144.624C143.72 145.797 139.363 145.629 136.515 141.105C133.834 131.387 138.693 125.69 149.249 126.193Z" fill="#FDCF83"/>
<path d="M149.249 126.193C139.531 128.036 136.85 131.22 136.515 141.273C132.493 136.916 133.164 132.392 136.515 128.371C140.033 124.182 144.39 123.344 149.249 126.193Z" fill="#FEE2B4"/>
<path d="M53.2404 113.626C53.2404 111.616 53.2404 109.438 53.2404 107.427C53.2404 106.086 52.9053 104.076 54.9159 104.076C57.2617 104.076 57.2617 106.086 57.2617 107.762C57.2617 109.94 57.2617 112.286 57.2617 115.469C59.4399 112.453 58.6021 110.275 58.7697 108.097C58.9373 106.422 58.6021 104.243 60.7804 104.076C63.4612 103.908 62.6235 106.422 62.6235 107.762C62.6235 112.118 63.6288 116.642 58.4346 119.156C56.5915 119.993 57.2617 122.004 57.0942 123.68C57.0942 126.528 57.0942 129.544 57.0942 132.392C57.0942 134.068 57.0942 136.079 54.7484 136.079C52.7377 136.079 53.0728 134.068 53.0728 132.728C52.9053 130.717 53.0728 128.539 53.0728 126.528C53.0728 123.009 53.2404 119.993 49.3866 117.48C45.1978 114.799 48.2138 109.438 46.5382 105.416C46.2031 104.746 47.8787 103.908 48.884 103.908C50.392 103.908 51.2297 104.914 51.2297 106.254C51.3973 108.6 51.2297 111.113 51.2297 113.459C52.2351 113.626 52.7377 113.626 53.2404 113.626Z" fill="#262626"/>
<path d="M74.5196 103.741C78.0382 103.573 80.2165 105.249 81.7245 108.097C83.2324 111.113 83.5675 114.799 81.0542 116.81C76.0276 120.496 77.2005 125.355 76.8654 130.214C76.6978 132.392 78.2058 136.246 74.6872 136.246C71.6712 136.246 72.8441 132.727 72.8441 130.549C72.6765 125.523 73.6818 120.496 68.6552 116.475C66.1419 114.632 66.8121 110.61 68.3201 107.762C69.493 105.249 71.6712 103.573 74.5196 103.741Z" fill="#262626"/>
<path d="M74.6872 116.307C72.0063 115.637 71.001 113.794 71.3361 111.281C71.6712 108.935 72.6766 107.259 75.3574 107.594C78.0383 107.93 79.2112 109.94 78.8761 112.454C78.3734 114.799 77.2005 116.307 74.6872 116.307Z" fill="#FDCF83"/>
</svg>
