<svg xmlns="http://www.w3.org/2000/svg" viewBox="0 0 126.41 56.8"><defs><style>.cls-1{fill:#4d4d4d;}.cls-2{fill:#ed7402;}</style></defs><g id="Layer_2" data-name="Layer 2"><g id="Layer_1-2" data-name="Layer 1"><polygon class="cls-1" points="0 55.96 0 0 7.58 0 7.58 33.3 22.74 14.69 32 14.69 15.58 33.9 32.42 55.96 23.16 55.96 7.58 34.99 7.58 55.96 0 55.96"/><path class="cls-1" d="M49.86,56.8a11.89,11.89,0,0,1-6.33-1.45,8.32,8.32,0,0,1-3.35-3.73,11.62,11.62,0,0,1-1-4.76V0h7.58V42.48a22.54,22.54,0,0,0,.46,5.31,3.26,3.26,0,0,0,1.87,2.36,11.93,11.93,0,0,0,4.32.59L52.31,56.8Z"/><rect class="cls-1" x="61.29" y="14.69" width="7.58" height="41.27"/><rect class="cls-1" x="61.29" width="7.58" height="7.97"/><path class="cls-1" d="M97.05,21.9A13.43,13.43,0,1,1,83.62,35.33,13.45,13.45,0,0,1,97.05,21.9m0-7.21a20.64,20.64,0,1,0,20.63,20.64A20.64,20.64,0,0,0,97.05,14.69"/><path class="cls-2" d="M124.5,48a4.38,4.38,0,1,1-6.09,1.15A4.37,4.37,0,0,1,124.5,48"/><polygon class="cls-1" points="0 55.96 0 0 7.58 0 7.58 33.3 22.74 14.69 32 14.69 15.58 33.9 32.42 55.96 23.16 55.96 7.58 34.99 7.58 55.96 0 55.96"/><path class="cls-1" d="M49.86,56.8a11.89,11.89,0,0,1-6.33-1.45,8.32,8.32,0,0,1-3.35-3.73,11.62,11.62,0,0,1-1-4.76V0h7.58V42.48a22.54,22.54,0,0,0,.46,5.31,3.26,3.26,0,0,0,1.87,2.36,11.93,11.93,0,0,0,4.32.59L52.31,56.8Z"/><rect class="cls-1" x="61.29" y="14.69" width="7.58" height="41.27"/><rect class="cls-1" x="61.29" width="7.58" height="7.97"/><path class="cls-1" d="M97.05,21.9A13.43,13.43,0,1,1,83.62,35.33,13.45,13.45,0,0,1,97.05,21.9m0-7.21a20.64,20.64,0,1,0,20.63,20.64A20.64,20.64,0,0,0,97.05,14.69"/><path class="cls-2" d="M124.5,48a4.38,4.38,0,1,1-6.09,1.15A4.37,4.37,0,0,1,124.5,48"/></g></g></svg>