<svg width="18" height="19" viewBox="0 0 18 19" fill="none" xmlns="http://www.w3.org/2000/svg">
<path d="M0 2.53271C0 1.42815 0.89543 0.532715 2 0.532715H6C7.10457 0.532715 8 1.42815 8 2.53271V6.53271C8 7.63728 7.10457 8.53271 6 8.53271H2C0.895431 8.53271 0 7.63728 0 6.53271V2.53271ZM6 2.53271H2V6.53271H6V2.53271ZM10 2.53271C10 1.42815 10.8954 0.532715 12 0.532715H16C17.1046 0.532715 18 1.42815 18 2.53271V6.53271C18 7.63728 17.1046 8.53271 16 8.53271H12C10.8954 8.53271 10 7.63728 10 6.53271V2.53271ZM16 2.53271H12V6.53271H16V2.53271ZM0 12.5327C0 11.4281 0.89543 10.5327 2 10.5327H6C7.10457 10.5327 8 11.4281 8 12.5327V16.5327C8 17.6373 7.10457 18.5327 6 18.5327H2C0.895431 18.5327 0 17.6373 0 16.5327V12.5327ZM6 12.5327H2V16.5327H6V12.5327ZM10 12.5327C10 11.4281 10.8954 10.5327 12 10.5327H16C17.1046 10.5327 18 11.4281 18 12.5327V16.5327C18 17.6373 17.1046 18.5327 16 18.5327H12C10.8954 18.5327 10 17.6373 10 16.5327V12.5327ZM16 12.5327H12V16.5327H16V12.5327Z" fill="#ED7402"/>
</svg>
